# xmcd
#
# Track frame offsets:
#	150
#	18445
#	34765
#	51812
#	69720
#	86300
#	104435
#	121132
#	136730
#	154005
#	173330
#	188959
#	200390
#	216995
#	229422
#	244672
#
# Disc length: 3445 seconds
#
# Revision: 5
# Processed by: cddbd v1.5.2PL0 Copyright (c) Steve Scherf et al.
# Submitted via: audiograbber 1.83.01
#
DISCID=d30d7310
DTITLE=Various Artist - Cryin' Lyin' Lovin' and Leavin'
DYEAR=1998
DGENRE=Oldies
TTITLE0=Rhett Akins - That Ain't My Truck
TTITLE1=Big House - Cold Outside
TTITLE2=Blackhawk - I'm Not Strong Enough To Say No
TTITLE3=Michelle Wright - Take It Like A Man
TTITLE4=Mark Chesnutt - Too Cold At Home
TTITLE5=Vince Gill - Never Knew Lonely
TTITLE6=Mark Cottie - Even The Man In The Moon Is Cryin'
TTITLE7=Toby Keith - Wish I Didn't Know Now
TTITLE8=Suzy Bogguss - Cross My Broken Heart
TTITLE9=Lee Roy Parnell - I'm Holding My Own
TTITLE10=Mavericks - My Secret Flame
TTITLE11=Tracy Byrd - Holdin' Heaven
TTITLE12=Tanya Tucker - I Won't Take Less Than Your Love
TTITLE13=Gary Allan - Her Man
TTITLE14=Sammy Kershaw - Third Rate Romance
TTITLE15=Marty Stuart - Kiss Me I'm Gone
EXTD=
EXTT0=
EXTT1=
EXTT2=
EXTT3=
EXTT4=
EXTT5=
EXTT6=
EXTT7=
EXTT8=
EXTT9=
EXTT10=
EXTT11=
EXTT12=
EXTT13=
EXTT14=
EXTT15=
PLAYORDER=
